<?xml version="1.0" encoding="UTF-8"?>
<svg version="1.1" xmlns="http://www.w3.org/2000/svg" width="1024" height="768">
<path d="M0 0 C337.92 0 675.84 0 1024 0 C1024 253.44 1024 506.88 1024 768 C686.08 768 348.16 768 0 768 C0 514.56 0 261.12 0 0 Z " fill="#3F3F3F" transform="translate(0,0)"/>
<path d="M0 0 C225.39 0 450.78 0 683 0 C683 42.24 683 84.48 683 128 C457.61 128 232.22 128 0 128 C0 85.76 0 43.52 0 0 Z " fill="#989898" transform="translate(0,0)"/>
<path d="M0 0 C10.02971087 8.01353522 18.87409711 17.70360041 27.9465332 26.75366211 C29.7525075 28.55172302 31.55865956 30.34960539 33.36497498 32.14732361 C38.75527077 37.51381364 44.14131618 42.8845531 49.52619222 48.25648078 C51.04921152 49.77577785 52.5723556 51.2949497 54.09554267 52.81407857 C63.57771927 62.27103669 73.05830059 71.72959099 82.53411579 81.19292355 C84.72039667 83.37627541 86.90669394 85.55961087 89.09301758 87.74291992 C89.63632413 88.28548042 90.17963068 88.82804092 90.73940106 89.38704265 C99.55396662 98.18893598 108.37877713 106.98048389 117.20778618 115.76788669 C126.2926176 124.81025877 135.36795958 133.86206879 144.43419713 142.92308432 C149.51683633 148.00231684 154.60352828 153.07733869 159.70095253 158.14173698 C164.49191637 162.9017074 169.2699228 167.67431208 174.0395298 172.45569801 C175.7891322 174.20552114 177.5430033 175.95108833 179.30147934 177.69199371 C181.70631624 180.07410662 184.09512052 182.47125631 186.48066711 184.87266541 C187.1752162 185.5533324 187.86976528 186.23399939 188.5853613 186.93529266 C194.2399003 192.68255136 199.03791489 199.34109038 199.5 207.625 C199.33267139 218.20853455 192.30337895 224.39414609 185.27734375 231.28125 C184.20930207 232.34503622 183.14222388 233.40979059 182.07606506 234.47546387 C179.85018786 236.69520239 177.61634278 238.90646387 175.37573242 241.11132812 C172.49966809 243.94187378 169.63933038 246.78768959 166.78409481 249.63922882 C164.58620236 251.8327032 162.3829265 254.02069792 160.17767525 256.20677185 C159.12042488 257.25513096 158.06425221 258.30457803 157.00916862 259.3551178 C155.53973431 260.81554835 154.06383731 262.26909536 152.58569336 263.72070312 C151.74646835 264.54928833 150.90724335 265.37787354 150.04258728 266.23156738 C148 268 148 268 146 268 C145.78858525 268.53603788 145.57717051 269.07207577 145.35934925 269.62435722 C143.48266671 272.90410841 140.91058366 275.3681029 138.25041199 278.01028442 C137.65603232 278.60848964 137.06165266 279.20669485 136.44926149 279.82302749 C134.45423791 281.82837857 132.45212776 283.82649947 130.44995117 285.82470703 C129.01895474 287.26005005 127.58837708 288.69581067 126.15818787 290.13195801 C122.27032331 294.03322901 118.37605997 297.92805277 114.48022246 301.82136011 C111.2302989 305.07021516 107.98335405 308.32203908 104.73636323 311.57382476 C97.07749101 319.24379771 89.41329496 326.90842233 81.74584961 334.56982422 C73.83119557 342.47843589 65.92576668 350.39618386 58.02478808 358.31845582 C51.24456722 365.11627803 44.45856901 371.90829458 37.66791326 378.6956929 C33.61061136 382.75117959 29.55557996 386.80887338 25.5061245 390.8721962 C21.6985904 394.69228021 17.88390628 398.50507538 14.06356239 402.31234741 C12.66172546 403.7118129 11.26244968 405.11384923 9.86592102 406.51861191 C7.96097468 408.43397889 6.04704448 410.3398922 4.13053894 412.24368286 C3.57838894 412.80320715 3.02623893 413.36273144 2.45735711 413.93921101 C-2.5331487 418.86019341 -6.38429847 420.29202753 -13.3125 420.375 C-14.38113281 420.40335938 -15.44976562 420.43171875 -16.55078125 420.4609375 C-26.38568788 419.14664647 -32.33651472 412.24158571 -38.9921875 405.50390625 C-40.02905686 404.46719213 -41.06659527 403.43114677 -42.10476685 402.39573669 C-44.26766416 400.23421707 -46.42347998 398.06595018 -48.57421875 395.89233398 C-51.32618565 393.11189529 -54.09354164 390.34739648 -56.86611748 387.58752537 C-59.00619297 385.45441297 -61.13882309 383.31398187 -63.26919937 381.17118645 C-64.28698638 380.14889737 -65.30685116 379.12867243 -66.32885361 378.11059761 C-67.75509023 376.6872814 -69.17051304 375.25315416 -70.58544922 373.81860352 C-71.39182831 373.00682144 -72.1982074 372.19503937 -73.02902222 371.35865784 C-76.55361771 367.14079458 -77.34181302 363.22381298 -77.5 357.8125 C-77.5515625 356.76707031 -77.603125 355.72164062 -77.65625 354.64453125 C-75.62844575 343.3829755 -65.98147658 335.4328283 -58.20166016 327.74755859 C-56.8994391 326.44646765 -55.59810181 325.14449168 -54.2975769 323.84170532 C-50.78628006 320.32926681 -47.26284027 316.82924776 -43.73699617 313.33142042 C-40.04625938 309.6657887 -36.36694263 305.9887297 -32.68637085 302.31289673 C-25.72470939 295.36363833 -18.75292003 288.42463446 -11.77738321 281.48930705 C-3.83234507 273.58906978 4.10125815 265.67739135 12.03394771 257.76475787 C28.343323 241.4971264 44.66692032 225.24382913 61 209 C59.75023244 205.34683329 59.32901247 204.21934164 56 202 C56 201.34 56 200.68 56 200 C55.34 200 54.68 200 54 200 C54 199.34 54 198.68 54 198 C53.34 198 52.68 198 52 198 C49.375 195.625 49.375 195.625 47 193 C47 192.34 47 191.68 47 191 C46.34 191 45.68 191 45 191 C43.83218665 189.59175449 42.66872674 188.17970374 41.52574635 186.75122929 C39.95057417 184.94326976 38.29722366 183.46070684 36.46305847 181.91783142 C31.31465049 177.46921405 26.52840065 172.68372724 21.71606445 167.87719727 C20.7084189 166.87419128 19.70058049 165.87137902 18.69256592 164.8687439 C15.97747879 162.16666412 13.26563283 159.46135548 10.55480981 156.75499845 C8.85729236 155.06042775 7.15919618 153.36643904 5.46092796 151.67262077 C0.13585221 146.36118264 -5.18724475 141.04777329 -10.50744408 135.73145062 C-16.62844619 129.61493496 -22.75594481 123.50502719 -28.88914841 117.40074688 C-33.6462607 112.66528545 -38.39755916 107.92404147 -43.14452583 103.17840999 C-45.97298874 100.35099168 -48.80379452 97.52602146 -51.64069176 94.70706367 C-54.30760323 92.05669431 -56.96718397 89.39917796 -59.62145996 86.73615646 C-61.05270688 85.30377914 -62.49134863 83.87880255 -63.93025208 82.45411682 C-71.31583638 75.02081456 -77.0451238 68.63497683 -77.375 57.8125 C-77.42398438 56.72582031 -77.47296875 55.63914062 -77.5234375 54.51953125 C-76.21945945 45.75173855 -69.07233312 39.62946318 -63.04296875 33.64453125 C-62.18117508 32.7798674 -61.31938141 31.91520355 -60.43147278 31.02433777 C-58.61547089 29.2063031 -56.7957098 27.39201649 -54.97241211 25.58129883 C-52.19618878 22.82113851 -49.43633223 20.04534144 -46.67773438 17.26757812 C-44.90460687 15.49643319 -43.13054891 13.72621918 -41.35546875 11.95703125 C-40.53749313 11.13298294 -39.71951752 10.30893463 -38.87675476 9.45991516 C-28.309671 -0.97972433 -14.52701044 -8.50332687 0 0 Z " fill="#D8D8D8" transform="translate(206,238)"/>
<path d="M0 0 C112.53 0 225.06 0 341 0 C341 42.24 341 84.48 341 128 C228.47 128 115.94 128 0 128 C0 85.76 0 43.52 0 0 Z " fill="#666666" transform="translate(683,0)"/>
<path d="M0 0 C112.53 0 225.06 0 341 0 C341 42.24 341 84.48 341 128 C228.47 128 115.94 128 0 128 C0 85.76 0 43.52 0 0 Z " fill="#CCCCCC" transform="translate(0,0)"/>
<path d="M0 0 C1.85216743 -0.00576172 1.85216743 -0.00576172 3.74175239 -0.01163983 C5.11941137 -0.01085955 6.49707029 -0.00998075 7.87472916 -0.00901413 C9.3325096 -0.01159706 10.79028934 -0.01461001 12.24806809 -0.01801753 C16.26393643 -0.02609934 20.2797869 -0.02787776 24.2956624 -0.028615 C28.62298724 -0.03046351 32.95030276 -0.03800983 37.27762222 -0.04475021 C46.74455354 -0.05834256 56.21148062 -0.06435969 65.67842007 -0.06876087 C71.58773196 -0.07152183 77.49704221 -0.07575892 83.406353 -0.08026505 C99.7619593 -0.09245901 116.11756429 -0.10275799 132.47317505 -0.10614014 C133.52034313 -0.1063597 134.56751122 -0.10657927 135.64641167 -0.10680549 C136.69611074 -0.10702377 137.74580982 -0.10724204 138.82731795 -0.10746694 C140.95447016 -0.1079104 143.08162236 -0.10835697 145.20877457 -0.10880661 C146.26391952 -0.10902804 147.31906447 -0.10924947 148.40618351 -0.10947761 C165.50524599 -0.11342604 182.60426587 -0.13088087 199.70331189 -0.15416613 C217.25140494 -0.17787034 234.7994766 -0.19034157 252.34758592 -0.19150805 C262.2031106 -0.19242535 272.05857979 -0.19819139 281.9140892 -0.21632767 C290.30607873 -0.23171612 298.6979956 -0.23685656 307.08999655 -0.22858956 C311.37235283 -0.22467857 315.65456275 -0.22563451 319.93690109 -0.23964691 C323.85766277 -0.25235894 327.77816768 -0.25121217 331.69892886 -0.2390562 C333.1168572 -0.23709451 334.53480355 -0.24019943 335.95270655 -0.24890056 C344.60772443 -0.29864774 350.90450867 -0.30130047 357.8093605 5.31892776 C364.82132315 13.84699045 364.7027154 21.77537621 364.61795425 32.34627151 C364.61810949 33.92753541 364.61960257 35.50879969 364.62236404 37.09006119 C364.62374367 40.39430567 364.61126527 43.6981138 364.58841324 47.00227737 C364.56005306 51.2163555 364.56276535 55.42970824 364.57550335 59.64383984 C364.58249292 62.90660053 364.57463368 66.16919661 364.56224632 69.43193626 C364.55776194 70.9847087 364.55736838 72.537499 364.56131172 74.0902729 C364.5740186 83.49640363 364.4076576 91.65509927 359.4343605 99.94392776 C352.05775332 106.92179943 344.37245971 106.7073055 334.73648453 106.64609146 C333.2709704 106.65142108 331.80546174 106.65848915 330.33996344 106.66713852 C326.32580633 106.68573774 322.31201884 106.6794704 318.29784656 106.66898549 C313.96374612 106.66198578 309.62972103 106.67799719 305.29564285 106.69098282 C296.81030698 106.71261461 288.32510527 106.71249812 279.83975089 106.70435727 C272.94306686 106.69805547 266.04642193 106.69919596 259.14973831 106.70562935 C257.67694901 106.70698183 257.67694901 106.70698183 256.17440638 106.70836164 C254.17972949 106.71021285 252.18505261 106.71207541 250.19037575 106.7139492 C231.48966596 106.73052459 212.78903164 106.72181043 194.08832639 106.70496362 C176.98051118 106.69026458 159.87287156 106.7048984 142.76507896 106.73373378 C125.19533508 106.76312712 107.62567225 106.77410039 90.05590487 106.76455158 C88.06859749 106.76352903 86.0812901 106.76253442 84.0939827 106.76156807 C82.62732238 106.76085348 82.62732238 106.76085348 81.13103256 106.76012446 C74.24323427 106.75796038 67.35551274 106.76776404 60.46773148 106.7823391 C52.07290675 106.79985553 43.67830596 106.79975486 35.28349006 106.77698744 C31.00089268 106.76583937 26.71868994 106.76269542 22.43610954 106.78128815 C18.51408499 106.79809641 14.59279916 106.79173791 10.67082244 106.76707136 C9.25370439 106.76218876 7.83652671 106.76570205 6.41945857 106.7785588 C-1.58772239 106.84595161 -7.71355322 106.62621928 -13.8781395 101.13142776 C-18.97885432 95.76225426 -20.17876211 90.84945152 -20.1527977 83.59065628 C-20.15790863 82.84853897 -20.16301956 82.10642166 -20.16828537 81.34181595 C-20.18214226 78.89790573 -20.18122762 76.45427875 -20.17892075 74.01033401 C-20.18280973 72.30549389 -20.18714482 70.60065472 -20.19190598 68.8958168 C-20.19935971 65.32580293 -20.19908298 61.75588797 -20.19381332 58.18587112 C-20.1880188 53.61836163 -20.20495325 49.05125766 -20.228158 44.48381519 C-20.24291265 40.96385723 -20.2437647 37.44399655 -20.24064827 33.92401314 C-20.24116058 32.24035654 -20.24638132 30.55669437 -20.25646019 28.87306786 C-20.26884158 26.51564415 -20.26202334 24.15900557 -20.25045395 21.80159378 C-20.25809769 21.11101379 -20.26574142 20.42043381 -20.27361679 19.70892715 C-20.21335581 14.13402937 -18.74243082 10.13478921 -14.9406395 6.04939651 C-14.2600145 5.47834183 -13.5793895 4.90728714 -12.8781395 4.31892776 C-12.1975145 3.73498245 -11.5168895 3.15103714 -10.8156395 2.54939651 C-7.29199998 -0.02939611 -4.22735022 0.00492266 0 0 Z " fill="#D8D8D8" transform="translate(510.8781394958496,554.8685722351074)"/>
<path d="M0 0 C3.47985464 3.47347098 6.94363778 6.96201751 10.39770508 10.46118164 C15.62919449 15.75799364 20.87082174 21.04465059 26.11833668 26.32558537 C29.2842032 29.5123454 32.44620991 32.70275128 35.59985352 35.90161133 C38.66367511 39.00905657 41.73731249 42.10647993 44.8178463 45.19735527 C45.98427654 46.37113512 47.14720074 47.5484106 48.30640602 48.72932625 C57.69341336 58.71829496 57.69341336 58.71829496 70.23046875 63.42578125 C71.69419922 63.36970703 71.69419922 63.36970703 73.1875 63.3125 C74.17105469 63.28800781 75.15460938 63.26351562 76.16796875 63.23828125 C78.84749242 63.01283167 81.3787444 62.58942311 84 62 C80.1497221 66.59949745 76.16541476 70.98194457 71.92124939 75.2191925 C71.33978623 75.80362678 70.75832308 76.38806106 70.15923983 76.99020547 C68.22952219 78.92852631 66.29631098 80.86332233 64.36303711 82.7980957 C62.97107671 84.19468984 61.57931246 85.5914795 60.18772888 86.9884491 C56.42180372 90.7674378 52.6525974 94.54313648 48.88236308 98.31782556 C46.52632097 100.6768053 44.17086418 103.03636797 41.81558418 105.39610863 C34.44369736 112.78164806 27.06982712 120.16519858 19.69304556 127.54584914 C11.18067675 136.06270768 2.67490288 144.58608125 -5.82524306 153.11513835 C-12.4018405 159.71332733 -18.98416712 166.30576458 -25.5708999 172.89383572 C-29.50320117 176.82718588 -33.43302568 180.76293745 -37.35692024 184.70467567 C-41.04312986 188.40732438 -44.73638418 192.102796 -48.4352169 195.79283333 C-49.79191349 197.14875758 -51.14604227 198.50725665 -52.49741364 199.86848831 C-54.34083877 201.72457438 -56.19325109 203.57120006 -58.04823303 205.41572571 C-58.58209076 205.95763985 -59.1159485 206.49955398 -59.66598374 207.05788976 C-64.59054945 211.91766749 -68.47732444 213.29314161 -75.3125 213.375 C-76.38113281 213.40335938 -77.44976562 213.43171875 -78.55078125 213.4609375 C-88.38568788 212.14664647 -94.33651472 205.24158571 -100.9921875 198.50390625 C-102.02905686 197.46719213 -103.06659527 196.43114677 -104.10476685 195.39573669 C-106.26766416 193.23421707 -108.42347998 191.06595018 -110.57421875 188.89233398 C-113.32618565 186.11189529 -116.09354164 183.34739648 -118.86611748 180.58752537 C-121.00619297 178.45441297 -123.13882309 176.31398187 -125.26919937 174.17118645 C-126.28698638 173.14889737 -127.30685116 172.12867243 -128.32885361 171.11059761 C-129.75509023 169.6872814 -131.17051304 168.25315416 -132.58544922 166.81860352 C-133.39182831 166.00682144 -134.1982074 165.19503937 -135.02902222 164.35865784 C-138.55361771 160.14079458 -139.34181302 156.22381298 -139.5 150.8125 C-139.5515625 149.76707031 -139.603125 148.72164062 -139.65625 147.64453125 C-137.6295597 136.38916193 -127.99744701 128.45449899 -120.2175293 120.77929688 C-118.91692269 119.48146013 -117.61720817 118.18272889 -116.3183136 116.88317871 C-112.81098582 113.37895734 -109.29158031 109.88710038 -105.76992774 106.39728355 C-102.08202857 102.73823214 -98.40595805 99.06733683 -94.72871399 95.39758301 C-87.77157534 88.45799684 -80.8047262 81.52825019 -73.83392507 74.60239077 C-63.58583698 64.41966069 -53.35055889 54.22406649 -43.11760426 44.02613068 C-42.36778756 43.2788834 -41.61797087 42.53163611 -40.84543246 41.76174498 C-39.35106118 40.27247065 -37.85672222 38.78316389 -36.36241657 37.29382372 C-31.98054851 32.92723279 -27.59516346 28.56421255 -23.20674264 24.20420742 C-20.48587202 21.5003038 -17.76691305 18.79448347 -15.04833794 16.08827209 C-13.7837891 14.83040991 -12.51836114 13.57343086 -11.25201035 12.31738281 C-9.5294424 10.6086668 -7.80991988 8.89694343 -6.09111023 7.18444824 C-5.33121081 6.4330108 -5.33121081 6.4330108 -4.55595988 5.6663928 C-1.94763102 3.08289059 -1.94763102 3.08289059 0 0 Z " fill="#A0A0A0" transform="translate(268,445)"/>
<path d="M0 0 C0.33 0 0.66 0 1 0 C1 10.89 1 21.78 1 33 C-9.89 33 -20.78 33 -32 33 C-29.52637184 31.35091456 -27.52562869 30.34485547 -24.8125 29.25 C-14.08068872 24.52869991 -6.52762923 16.77488687 -2 6 C-1.29094062 4.01463373 -0.60578253 2.01927511 0 0 Z " fill="#000000" transform="translate(1023,735)"/>
<path d="M0 0 C1.64908544 2.47362816 2.65514453 4.47437131 3.75 7.1875 C8.70620407 18.45326276 16.32610418 25.22043471 27.546875 29.921875 C30 31 30 31 33 33 C22.11 33 11.22 33 0 33 C0 22.11 0 11.22 0 0 Z " fill="#000000" transform="translate(0,735)"/>
<path d="M0 0 C10.89 0 21.78 0 33 0 C33 10.89 33 21.78 33 33 C31.97144367 30.94288734 30.9480318 28.88103665 30.02734375 26.7734375 C25.19615971 16.1413694 17.5507128 7.28668023 6.5 3.0390625 C4.34488467 2.30497634 2.18936154 1.62335988 0 1 C0 0.67 0 0.34 0 0 Z " fill="#000000" transform="translate(991,0)"/>
<path d="M0 0 C10.89 0 21.78 0 33 0 C30.77364249 1.11317875 28.5367409 2.2078048 26.265625 3.2265625 C15.51681602 8.21111381 7.38211123 15.25833348 3.03125 26.50390625 C2.30304181 28.65818881 1.62264315 30.81315577 1 33 C0.67 33 0.34 33 0 33 C0 22.11 0 11.22 0 0 Z " fill="#000000" transform="translate(0,0)"/>
</svg>
